<svg version="1.2" baseProfile="tiny-ps" xmlns="http://www.w3.org/2000/svg" viewBox="0 0 19 19" width="19" height="19">
	<title>Deposit founds new credit card</title>
	<style>
		tspan { white-space:pre }
		.shp2 { fill: #d8d8d8 } 
		.shp2a { fill: none;stroke: #d8d8d8;stroke-width: 2.5 } 
	</style>
	<g id="Deposit founds new credit card">
		<g id="Header intro">
			<g id="Hamburger ikon Copy">
				<path id="Rectangle" class="shp2" d="M15.38 14.38L16.88 15.88C17.5 16.5 17.5 17.51 16.88 18.13L16.88 18.13C16.26 18.75 15.25 18.75 14.63 18.13L13.13 16.63C12.51 16.01 12.51 15 13.13 14.38L13.13 14.38C13.75 13.76 14.76 13.76 15.38 14.38Z" />
				<path id="Oval" class="shp2a" d="M9 16.26C12.87 16.26 16 13.12 16 9.26C16 5.39 12.87 2.26 9 2.26C5.14 2.26 2 5.39 2 9.26C2 13.12 5.14 16.26 9 16.26Z" />
			</g>
		</g>
	</g>
</svg>